# xmcd
#
# Track frame offsets:
#	150
#	23077
#	47579
#	49696
#	73509
#	80338
#	104825
#	127492
#	155482
#
# Disc length: 2444 seconds
#
# Revision: 0
# Processed by: cddbd v1.5.2PL0 Copyright (c) Steve Scherf et al.
# Submitted via: SynApp - FreeCDDB Version: 2.1
#
DISCID=7a098a09
DTITLE=Black Sabbath - Sammelalbum
DYEAR=2002
DGENRE=Classic Rock
TTITLE0=Sweet Leaf
TTITLE1=After Forever
TTITLE2=Embryo
TTITLE3=Children Of The Grave
TTITLE4=Orchid
TTITLE5=Lords Of This World
TTITLE6=Solitude
TTITLE7=Into The Void
TTITLE8=Into the Void
EXTD=Album: Master Of RealityAlbum: Master Of RealityAlbum: Master Of RealityAlbum: Master Of RealityAlbum: Master Of RealityAlbum: Master Of RealityAlbum: Master Of RealityAlbum: Master Of RealityAlbum: Best of Black Sabbath
EXTT0=
EXTT1=
EXTT2=
EXTT3=
EXTT4=
EXTT5=
EXTT6=
EXTT7=
EXTT8=
PLAYORDER=
